<svg width="75" height="76" viewBox="0 0 75 76" fill="none" xmlns="http://www.w3.org/2000/svg">
<path fill-rule="evenodd" clip-rule="evenodd" d="M37.5 0C46.875 0 57.2917 0.72229 64.3229 5.27778C66.5719 6.73481 68.3539 8.5405 69.7917 10.8194C74.2872 17.9444 75 28.5 75 38C75 47.5 74.2872 58.0556 69.7917 65.1806C68.3539 67.4595 66.5719 69.2653 64.3229 70.7222C57.2917 75.2777 46.875 76 37.5 76C28.125 76 17.7083 75.2777 10.6771 70.7222C8.42813 69.2653 6.6462 67.4595 5.20833 65.1806C0.712786 58.0556 0 47.5 0 38C0 28.5 0.712786 17.9444 5.20833 10.8194C6.6462 8.5405 8.42813 6.73481 10.6771 5.27778C17.7083 0.72229 28.125 0 37.5 0Z" fill="#F1F3F9"/>
<path d="M29.3333 29.3333V22.6667C29.3333 22.2246 29.5089 21.8007 29.8215 21.4882C30.1341 21.1756 30.558 21 31 21H52.6667C53.1087 21 53.5326 21.1756 53.8452 21.4882C54.1577 21.8007 54.3333 22.2246 54.3333 22.6667V44.3333C54.3333 44.7754 54.1577 45.1993 53.8452 45.5118C53.5326 45.8244 53.1087 46 52.6667 46H46V52.655C46 53.5817 45.2517 54.3333 44.3217 54.3333H22.6783C22.4579 54.3336 22.2395 54.2903 22.0358 54.206C21.8321 54.1218 21.647 53.9981 21.4911 53.8423C21.3352 53.6864 21.2116 53.5013 21.1273 53.2975C21.043 53.0938 20.9998 52.8755 21 52.655L21.005 31.0117C21.005 30.085 21.7533 29.3333 22.6833 29.3333H29.3333ZM32.6667 29.3333H44.3217C45.2483 29.3333 46 30.0817 46 31.0117V42.6667H51V24.3333H32.6667V29.3333ZM42.6667 32.6667H24.3383L24.3333 51H42.6667V32.6667ZM31.8383 47.6667L25.945 41.7733L28.3017 39.4167L31.8383 42.9533L38.9083 35.8817L41.265 38.2383L31.8383 47.6667Z" fill="#2858A5"/>
<path d="M25.9453 41.7733L31.8386 47.6667L41.2653 38.2383L38.9086 35.8817L31.8386 42.9533L28.302 39.4167L25.9453 41.7733Z" fill="#2858A5"/>
</svg>
