<svg width="11" height="12" viewBox="0 0 11 12" fill="none" xmlns="http://www.w3.org/2000/svg">
<path d="M0 11.7818C0 10.6704 0.441853 9.60457 1.22836 8.8187C2.01486 8.03283 3.08159 7.59134 4.19387 7.59134C5.30616 7.59134 6.37288 8.03283 7.15939 8.8187C7.94589 9.60457 8.38774 10.6704 8.38774 11.7818H0ZM4.19387 7.06753C2.45604 7.06753 1.04847 5.6611 1.04847 3.92467C1.04847 2.18824 2.45604 0.781815 4.19387 0.781815C5.93171 0.781815 7.33928 2.18824 7.33928 3.92467C7.33928 5.6611 5.93171 7.06753 4.19387 7.06753ZM8.05381 8.2372C8.8557 8.44313 9.57213 8.89659 10.1011 9.53301C10.6301 10.1694 10.9446 10.9564 11 11.7818H9.43621C9.43621 10.4147 8.91198 9.1701 8.05381 8.2372ZM6.99328 7.04501C7.43259 6.6524 7.78391 6.17147 8.02422 5.63373C8.26453 5.09599 8.38841 4.51358 8.38774 3.92467C8.38886 3.20887 8.20562 2.50482 7.85565 1.88024C8.44941 1.99946 8.98354 2.32044 9.36725 2.78863C9.75096 3.25683 9.96056 3.84334 9.96044 4.44848C9.96059 4.82168 9.88089 5.19059 9.72669 5.5305C9.5725 5.87041 9.34737 6.17346 9.06639 6.41934C8.78542 6.66522 8.45509 6.84824 8.09754 6.95615C7.74 7.06406 7.3635 7.09435 6.99328 7.04501Z" fill="white"/>
</svg>
